{"asset":{"version":"2.0","generator":"babylon.js glTF exporter for 3dsmax 2 v20240312.5"},"scene":0,"scenes":[{"nodes":[0,1,2]}],"nodes":[{"mesh":0,"translation":[0.0,0.0,0.6],"name":"sun"},{"mesh":1,"translation":[0.232505769,0.1479928,0.6],"name":"moon1"},{"mesh":2,"translation":[-0.1549148,-0.136407167,0.6],"name":"moon2"}],"meshes":[{"primitives":[{"attributes":{"POSITION":1,"NORMAL":2,"TEXCOORD_0":3},"indices":0}],"name":"sun"},{"primitives":[{"attributes":{"POSITION":5,"NORMAL":6,"TEXCOORD_0":7},"indices":4}],"name":"moon1"},{"primitives":[{"attributes":{"POSITION":9,"NORMAL":10,"TEXCOORD_0":11},"indices":8}],"name":"moon2"}],"accessors":[{"bufferView":0,"componentType":5123,"count":11904,"type":"SCALAR","name":"accessorIndices"},{"bufferView":1,"componentType":5126,"count":2143,"max":[0.0100000007,0.0100000007,0.0100000007],"min":[-0.0100000007,-0.0100000007,-0.0100000007],"type":"VEC3","name":"accessorPositions"},{"bufferView":1,"byteOffset":25716,"componentType":5126,"count":2143,"type":"VEC3","name":"accessorNormals"},{"bufferView":2,"componentType":5126,"count":2143,"type":"VEC2","name":"accessorUVs"},{"bufferView":0,"byteOffset":23808,"componentType":5123,"count":11904,"type":"SCALAR","name":"accessorIndices"},{"bufferView":1,"byteOffset":51432,"componentType":5126,"count":2143,"max":[0.0035,0.0035,0.0035],"min":[-0.0035,-0.0035,-0.0035],"type":"VEC3","name":"accessorPositions"},{"bufferView":1,"byteOffset":77148,"componentType":5126,"count":2143,"type":"VEC3","name":"accessorNormals"},{"bufferView":2,"byteOffset":17144,"componentType":5126,"count":2143,"type":"VEC2","name":"accessorUVs"},{"bufferView":0,"byteOffset":47616,"componentType":5123,"count":11904,"type":"SCALAR","name":"accessorIndices"},{"bufferView":1,"byteOffset":102864,"componentType":5126,"count":2143,"max":[0.00250000018,0.00250000018,0.00250000018],"min":[-0.00250000018,-0.00250000018,-0.00250000018],"type":"VEC3","name":"accessorPositions"},{"bufferView":1,"byteOffset":128580,"componentType":5126,"count":2143,"type":"VEC3","name":"accessorNormals"},{"bufferView":2,"byteOffset":34288,"componentType":5126,"count":2143,"type":"VEC2","name":"accessorUVs"},{"bufferView":3,"componentType":5126,"count":19,"max":[10.0],"min":[0.0],"type":"SCALAR","name":"accessorAnimationInput"},{"bufferView":4,"componentType":5126,"count":19,"type":"VEC3","name":"accessorAnimationPositions"},{"bufferView":3,"byteOffset":76,"componentType":5126,"count":6,"max":[10.0],"min":[0.0],"type":"SCALAR","name":"accessorAnimationInput"},{"bufferView":4,"byteOffset":228,"componentType":5126,"count":6,"type":"VEC3","name":"accessorAnimationScales"},{"bufferView":3,"byteOffset":100,"componentType":5126,"count":19,"max":[10.0],"min":[0.0],"type":"SCALAR","name":"accessorAnimationInput"},{"bufferView":4,"byteOffset":300,"componentType":5126,"count":19,"type":"VEC3","name":"accessorAnimationPositions"},{"bufferView":3,"byteOffset":176,"componentType":5126,"count":6,"max":[10.0],"min":[0.0],"type":"SCALAR","name":"accessorAnimationInput"},{"bufferView":4,"byteOffset":528,"componentType":5126,"count":6,"type":"VEC3","name":"accessorAnimationScales"},{"bufferView":3,"byteOffset":200,"componentType":5126,"count":22,"max":[10.0],"min":[0.0],"type":"SCALAR","name":"accessorAnimationInput"},{"bufferView":4,"byteOffset":600,"componentType":5126,"count":22,"type":"VEC3","name":"accessorAnimationPositions"}],"bufferViews":[{"buffer":0,"byteLength":71424,"name":"bufferViewScalar"},{"buffer":0,"byteOffset":71424,"byteLength":154296,"byteStride":12,"name":"bufferViewFloatVec3"},{"buffer":0,"byteOffset":225720,"byteLength":51432,"byteStride":8,"name":"bufferViewFloatVec2"},{"buffer":0,"byteOffset":277152,"byteLength":288,"name":"bufferViewAnimationFloatScalar"},{"buffer":0,"byteOffset":277440,"byteLength":864,"name":"bufferViewAnimationFloatVec3"}],"buffers":[{"uri":"spheres.bin","byteLength":278304}],"animations":[{"channels":[{"sampler":0,"target":{"node":0,"path":"translation"}},{"sampler":1,"target":{"node":0,"path":"scale"}},{"sampler":2,"target":{"node":1,"path":"translation"}},{"sampler":3,"target":{"node":1,"path":"scale"}},{"sampler":4,"target":{"node":2,"path":"translation"}}],"samplers":[{"input":12,"output":13},{"input":14,"output":15},{"input":16,"output":17},{"input":18,"output":19},{"input":20,"output":21}],"name":"All Animations"}]}