{"asset":{"version":"2.0","generator":"babylon.js glTF exporter for 3dsmax 2 v20240312.5"},"scene":0,"scenes":[{"nodes":[0,1,2,3,4,5]}],"nodes":[{"mesh":0,"translation":[0.0,0.0,-0.6],"name":"sun"},{"mesh":1,"translation":[-0.220000014,0.14,-0.6],"name":"moon1"},{"mesh":2,"translation":[0.116439328,-0.0942129642,-0.6],"name":"moon2"},{"mesh":3,"translation":[0.0,0.0,-0.6],"name":"sunGlow"},{"mesh":4,"translation":[-0.00634596171,-0.00312546454,-0.5869223],"name":"moon3"},{"mesh":5,"translation":[-0.0298422147,0.0,0.0497129],"rotation":[-0.5,0.5,-0.5,-0.5],"scale":[2.71325088,2.56793046,3.194887],"name":"phone"}],"meshes":[{"primitives":[{"attributes":{"POSITION":1,"NORMAL":2,"TEXCOORD_0":3},"indices":0}],"name":"sun"},{"primitives":[{"attributes":{"POSITION":5,"NORMAL":6,"TEXCOORD_0":7},"indices":4}],"name":"moon1"},{"primitives":[{"attributes":{"POSITION":9,"NORMAL":10,"TEXCOORD_0":11},"indices":8}],"name":"moon2"},{"primitives":[{"attributes":{"POSITION":13,"NORMAL":14,"TEXCOORD_0":15},"indices":12}],"name":"sunGlow"},{"primitives":[{"attributes":{"POSITION":17,"NORMAL":18,"TEXCOORD_0":19},"indices":16}],"name":"moon3"},{"primitives":[{"attributes":{"POSITION":21,"NORMAL":22,"TEXCOORD_0":23},"indices":20,"material":0},{"attributes":{"POSITION":25,"NORMAL":26,"TEXCOORD_0":27},"indices":24,"material":1}],"name":"phone"}],"accessors":[{"bufferView":0,"componentType":5123,"count":11904,"type":"SCALAR","name":"accessorIndices"},{"bufferView":1,"componentType":5126,"count":2143,"max":[0.0100000007,0.0100000007,0.0100000007],"min":[-0.0100000007,-0.0100000007,-0.0100000007],"type":"VEC3","name":"accessorPositions"},{"bufferView":1,"byteOffset":25716,"componentType":5126,"count":2143,"type":"VEC3","name":"accessorNormals"},{"bufferView":2,"componentType":5126,"count":2143,"type":"VEC2","name":"accessorUVs"},{"bufferView":0,"byteOffset":23808,"componentType":5123,"count":11904,"type":"SCALAR","name":"accessorIndices"},{"bufferView":1,"byteOffset":51432,"componentType":5126,"count":2143,"max":[0.004,0.004,0.004],"min":[-0.004,-0.004,-0.004],"type":"VEC3","name":"accessorPositions"},{"bufferView":1,"byteOffset":77148,"componentType":5126,"count":2143,"type":"VEC3","name":"accessorNormals"},{"bufferView":2,"byteOffset":17144,"componentType":5126,"count":2143,"type":"VEC2","name":"accessorUVs"},{"bufferView":0,"byteOffset":47616,"componentType":5123,"count":11904,"type":"SCALAR","name":"accessorIndices"},{"bufferView":1,"byteOffset":102864,"componentType":5126,"count":2143,"max":[0.002,0.002,0.002],"min":[-0.002,-0.002,-0.002],"type":"VEC3","name":"accessorPositions"},{"bufferView":1,"byteOffset":128580,"componentType":5126,"count":2143,"type":"VEC3","name":"accessorNormals"},{"bufferView":2,"byteOffset":34288,"componentType":5126,"count":2143,"type":"VEC2","name":"accessorUVs"},{"bufferView":0,"byteOffset":71424,"componentType":5123,"count":11904,"type":"SCALAR","name":"accessorIndices"},{"bufferView":1,"byteOffset":154296,"componentType":5126,"count":2143,"max":[0.0100000007,0.0100000007,0.0100000007],"min":[-0.0100000007,-0.0100000007,-0.0100000007],"type":"VEC3","name":"accessorPositions"},{"bufferView":1,"byteOffset":180012,"componentType":5126,"count":2143,"type":"VEC3","name":"accessorNormals"},{"bufferView":2,"byteOffset":51432,"componentType":5126,"count":2143,"type":"VEC2","name":"accessorUVs"},{"bufferView":0,"byteOffset":95232,"componentType":5123,"count":11904,"type":"SCALAR","name":"accessorIndices"},{"bufferView":1,"byteOffset":205728,"componentType":5126,"count":2143,"max":[0.0015,0.0015,0.0015],"min":[-0.0015,-0.0015,-0.0015],"type":"VEC3","name":"accessorPositions"},{"bufferView":1,"byteOffset":231444,"componentType":5126,"count":2143,"type":"VEC3","name":"accessorNormals"},{"bufferView":2,"byteOffset":68576,"componentType":5126,"count":2143,"type":"VEC2","name":"accessorUVs"},{"bufferView":0,"byteOffset":119040,"componentType":5123,"count":246,"type":"SCALAR","name":"accessorIndices"},{"bufferView":1,"byteOffset":257160,"componentType":5126,"count":60,"max":[0.000335000135,-2.13848671E-05,0.0005],"min":[-0.000335000077,-2.13848671E-05,-0.00050000014],"type":"VEC3","name":"accessorPositions"},{"bufferView":1,"byteOffset":257880,"componentType":5126,"count":60,"type":"VEC3","name":"accessorNormals"},{"bufferView":2,"byteOffset":85720,"componentType":5126,"count":60,"type":"VEC2","name":"accessorUVs"},{"bufferView":0,"byteOffset":119532,"componentType":5123,"count":462,"type":"SCALAR","name":"accessorIndices"},{"bufferView":1,"byteOffset":258600,"componentType":5126,"count":166,"max":[0.000335000135,2.33190549E-05,0.0005],"min":[-0.0003350001,-2.13848671E-05,-0.00050000014],"type":"VEC3","name":"accessorPositions"},{"bufferView":1,"byteOffset":260592,"componentType":5126,"count":166,"type":"VEC3","name":"accessorNormals"},{"bufferView":2,"byteOffset":86200,"componentType":5126,"count":166,"type":"VEC2","name":"accessorUVs"},{"bufferView":3,"componentType":5126,"count":32,"max":[10.0],"min":[0.0],"type":"SCALAR","name":"accessorAnimationInput"},{"bufferView":4,"componentType":5126,"count":32,"type":"VEC3","name":"accessorAnimationPositions"},{"bufferView":3,"byteOffset":128,"componentType":5126,"count":296,"max":[10.0],"min":[0.0],"type":"SCALAR","name":"accessorAnimationInput"},{"bufferView":4,"byteOffset":384,"componentType":5126,"count":296,"type":"VEC3","name":"accessorAnimationPositions"},{"bufferView":3,"byteOffset":1312,"componentType":5126,"count":168,"max":[10.0],"min":[0.0],"type":"SCALAR","name":"accessorAnimationInput"},{"bufferView":4,"byteOffset":3936,"componentType":5126,"count":168,"type":"VEC3","name":"accessorAnimationScales"},{"bufferView":3,"byteOffset":1984,"componentType":5126,"count":282,"max":[10.0],"min":[0.0],"type":"SCALAR","name":"accessorAnimationInput"},{"bufferView":4,"byteOffset":5952,"componentType":5126,"count":282,"type":"VEC3","name":"accessorAnimationPositions"},{"bufferView":3,"byteOffset":3112,"componentType":5126,"count":148,"max":[10.0],"min":[0.0],"type":"SCALAR","name":"accessorAnimationInput"},{"bufferView":4,"byteOffset":9336,"componentType":5126,"count":148,"type":"VEC3","name":"accessorAnimationScales"},{"bufferView":3,"byteOffset":3704,"componentType":5126,"count":32,"max":[10.0],"min":[0.0],"type":"SCALAR","name":"accessorAnimationInput"},{"bufferView":4,"byteOffset":11112,"componentType":5126,"count":32,"type":"VEC3","name":"accessorAnimationPositions"},{"bufferView":3,"byteOffset":3832,"componentType":5126,"count":301,"max":[10.0],"min":[0.0],"type":"SCALAR","name":"accessorAnimationInput"},{"bufferView":4,"byteOffset":11496,"componentType":5126,"count":301,"type":"VEC3","name":"accessorAnimationPositions"},{"bufferView":3,"byteOffset":5036,"componentType":5126,"count":99,"max":[10.0],"min":[0.0],"type":"SCALAR","name":"accessorAnimationInput"},{"bufferView":4,"byteOffset":15108,"componentType":5126,"count":99,"type":"VEC3","name":"accessorAnimationScales"},{"bufferView":3,"byteOffset":5432,"componentType":5126,"count":160,"max":[10.0],"min":[0.0],"type":"SCALAR","name":"accessorAnimationInput"},{"bufferView":4,"byteOffset":16296,"componentType":5126,"count":160,"type":"VEC3","name":"accessorAnimationPositions"},{"bufferView":3,"byteOffset":6072,"componentType":5126,"count":179,"max":[10.0],"min":[0.0],"type":"SCALAR","name":"accessorAnimationInput"},{"bufferView":5,"componentType":5126,"count":179,"type":"VEC4","name":"accessorAnimationRotations"},{"bufferView":3,"byteOffset":6788,"componentType":5126,"count":184,"max":[10.0],"min":[0.0],"type":"SCALAR","name":"accessorAnimationInput"},{"bufferView":4,"byteOffset":18216,"componentType":5126,"count":184,"type":"VEC3","name":"accessorAnimationScales"}],"bufferViews":[{"buffer":0,"byteLength":120456,"name":"bufferViewScalar"},{"buffer":0,"byteOffset":120456,"byteLength":262584,"byteStride":12,"name":"bufferViewFloatVec3"},{"buffer":0,"byteOffset":383040,"byteLength":87528,"byteStride":8,"name":"bufferViewFloatVec2"},{"buffer":0,"byteOffset":470568,"byteLength":7524,"name":"bufferViewAnimationFloatScalar"},{"buffer":0,"byteOffset":478092,"byteLength":20424,"name":"bufferViewAnimationFloatVec3"},{"buffer":0,"byteOffset":498516,"byteLength":2864,"name":"bufferViewAnimationFloatVec4"}],"buffers":[{"uri":"spheres.bin","byteLength":501380}],"materials":[{"pbrMetallicRoughness":{"baseColorFactor":[0.5882353,0.5882353,0.5882353,1.0],"metallicFactor":0.0,"roughnessFactor":0.450053632},"name":"01 - Default"},{"pbrMetallicRoughness":{"baseColorFactor":[0.5882353,0.5882353,0.5882353,1.0],"metallicFactor":0.0,"roughnessFactor":0.450053632},"name":"02 - Default"}],"animations":[{"channels":[{"sampler":0,"target":{"node":0,"path":"translation"}},{"sampler":1,"target":{"node":1,"path":"translation"}},{"sampler":2,"target":{"node":1,"path":"scale"}},{"sampler":3,"target":{"node":2,"path":"translation"}},{"sampler":4,"target":{"node":2,"path":"scale"}},{"sampler":5,"target":{"node":3,"path":"translation"}},{"sampler":6,"target":{"node":4,"path":"translation"}},{"sampler":7,"target":{"node":4,"path":"scale"}},{"sampler":8,"target":{"node":5,"path":"translation"}},{"sampler":9,"target":{"node":5,"path":"rotation"}},{"sampler":10,"target":{"node":5,"path":"scale"}}],"samplers":[{"input":28,"output":29},{"input":30,"output":31},{"input":32,"output":33},{"input":34,"output":35},{"input":36,"output":37},{"input":38,"output":39},{"input":40,"output":41},{"input":42,"output":43},{"input":44,"output":45},{"input":46,"output":47},{"input":48,"output":49}],"name":"All Animations"}]}