{"asset":{"version":"2.0","generator":"babylon.js glTF exporter for 3dsmax 2 v20240312.5"},"scene":0,"scenes":[{"nodes":[0]}],"nodes":[{"children":[1,2,3,4,5,6],"scale":[10.0,10.0,10.0],"name":"root"},{"mesh":0,"translation":[0.0,0.0,-0.6],"name":"sun"},{"mesh":1,"translation":[-0.220000014,0.14,-0.6],"name":"moon1"},{"mesh":2,"translation":[0.116439328,-0.0942129642,-0.6],"name":"moon2"},{"mesh":3,"translation":[0.0,0.0,-0.6],"name":"sunGlow"},{"mesh":4,"translation":[-0.00634596171,-0.00312546454,-0.5869223],"name":"moon3"},{"children":[7,8],"translation":[-0.000266636256,0.0,0.02326211],"rotation":[-6.30548058E-10,6.305447E-10,0.0,1.0],"scale":[1.0,1.0,0.7869142],"name":"phone"},{"mesh":5,"translation":[0.000266636256,0.0,0.0],"rotation":[-0.5,0.5,0.5000002,0.499999881],"scale":[0.3118024,0.3118024,0.311802417],"name":"phone case"},{"mesh":6,"translation":[0.000266636256,0.0,0.0],"rotation":[-0.499999851,0.49999994,0.499999851,0.500000358],"scale":[0.311802357,0.3118024,0.311802477],"name":"LCD"}],"meshes":[{"primitives":[{"attributes":{"POSITION":1,"NORMAL":2,"TEXCOORD_0":3},"indices":0}],"name":"sun"},{"primitives":[{"attributes":{"POSITION":5,"NORMAL":6,"TEXCOORD_0":7},"indices":4}],"name":"moon1"},{"primitives":[{"attributes":{"POSITION":9,"NORMAL":10,"TEXCOORD_0":11},"indices":8}],"name":"moon2"},{"primitives":[{"attributes":{"POSITION":13,"NORMAL":14,"TEXCOORD_0":15},"indices":12}],"name":"sunGlow"},{"primitives":[{"attributes":{"POSITION":17,"NORMAL":18,"TEXCOORD_0":19},"indices":16}],"name":"moon3"},{"primitives":[{"attributes":{"POSITION":21,"NORMAL":22,"TEXCOORD_0":23},"indices":20,"material":0}],"name":"phone case"},{"primitives":[{"attributes":{"POSITION":25,"NORMAL":26,"TEXCOORD_0":27},"indices":24,"material":1}],"name":"LCD"}],"accessors":[{"bufferView":0,"componentType":5123,"count":11904,"type":"SCALAR","name":"accessorIndices"},{"bufferView":1,"componentType":5126,"count":2143,"max":[0.0100000007,0.0100000007,0.0100000007],"min":[-0.0100000007,-0.0100000007,-0.0100000007],"type":"VEC3","name":"accessorPositions"},{"bufferView":1,"byteOffset":25716,"componentType":5126,"count":2143,"type":"VEC3","name":"accessorNormals"},{"bufferView":2,"componentType":5126,"count":2143,"type":"VEC2","name":"accessorUVs"},{"bufferView":0,"byteOffset":23808,"componentType":5123,"count":11904,"type":"SCALAR","name":"accessorIndices"},{"bufferView":1,"byteOffset":51432,"componentType":5126,"count":2143,"max":[0.004,0.004,0.004],"min":[-0.004,-0.004,-0.004],"type":"VEC3","name":"accessorPositions"},{"bufferView":1,"byteOffset":77148,"componentType":5126,"count":2143,"type":"VEC3","name":"accessorNormals"},{"bufferView":2,"byteOffset":17144,"componentType":5126,"count":2143,"type":"VEC2","name":"accessorUVs"},{"bufferView":0,"byteOffset":47616,"componentType":5123,"count":11904,"type":"SCALAR","name":"accessorIndices"},{"bufferView":1,"byteOffset":102864,"componentType":5126,"count":2143,"max":[0.002,0.002,0.002],"min":[-0.002,-0.002,-0.002],"type":"VEC3","name":"accessorPositions"},{"bufferView":1,"byteOffset":128580,"componentType":5126,"count":2143,"type":"VEC3","name":"accessorNormals"},{"bufferView":2,"byteOffset":34288,"componentType":5126,"count":2143,"type":"VEC2","name":"accessorUVs"},{"bufferView":0,"byteOffset":71424,"componentType":5123,"count":11904,"type":"SCALAR","name":"accessorIndices"},{"bufferView":1,"byteOffset":154296,"componentType":5126,"count":2143,"max":[0.0100000007,0.0100000007,0.0100000007],"min":[-0.0100000007,-0.0100000007,-0.0100000007],"type":"VEC3","name":"accessorPositions"},{"bufferView":1,"byteOffset":180012,"componentType":5126,"count":2143,"type":"VEC3","name":"accessorNormals"},{"bufferView":2,"byteOffset":51432,"componentType":5126,"count":2143,"type":"VEC2","name":"accessorUVs"},{"bufferView":0,"byteOffset":95232,"componentType":5123,"count":11904,"type":"SCALAR","name":"accessorIndices"},{"bufferView":1,"byteOffset":205728,"componentType":5126,"count":2143,"max":[0.0015,0.0015,0.0015],"min":[-0.0015,-0.0015,-0.0015],"type":"VEC3","name":"accessorPositions"},{"bufferView":1,"byteOffset":231444,"componentType":5126,"count":2143,"type":"VEC3","name":"accessorNormals"},{"bufferView":2,"byteOffset":68576,"componentType":5126,"count":2143,"type":"VEC2","name":"accessorUVs"},{"bufferView":0,"byteOffset":119040,"componentType":5123,"count":3078,"type":"SCALAR","name":"accessorIndices"},{"bufferView":1,"byteOffset":257160,"componentType":5126,"count":548,"max":[0.01016,0.00171029253,0.0127000008],"min":[-0.01016,-2.842171E-17,-0.0127000008],"type":"VEC3","name":"accessorPositions"},{"bufferView":1,"byteOffset":263736,"componentType":5126,"count":548,"type":"VEC3","name":"accessorNormals"},{"bufferView":2,"byteOffset":85720,"componentType":5126,"count":548,"type":"VEC2","name":"accessorUVs"},{"bufferView":0,"byteOffset":125196,"componentType":5123,"count":918,"type":"SCALAR","name":"accessorIndices"},{"bufferView":1,"byteOffset":270312,"componentType":5126,"count":188,"max":[0.01016,2.27373686E-16,0.0127000008],"min":[-0.01016,-2.27373686E-16,-0.0127000008],"type":"VEC3","name":"accessorPositions"},{"bufferView":1,"byteOffset":272568,"componentType":5126,"count":188,"type":"VEC3","name":"accessorNormals"},{"bufferView":2,"byteOffset":90104,"componentType":5126,"count":188,"type":"VEC2","name":"accessorUVs"},{"bufferView":3,"componentType":5126,"count":32,"max":[10.0],"min":[0.0],"type":"SCALAR","name":"accessorAnimationInput"},{"bufferView":4,"componentType":5126,"count":32,"type":"VEC3","name":"accessorAnimationPositions"},{"bufferView":3,"byteOffset":128,"componentType":5126,"count":296,"max":[10.0],"min":[0.0],"type":"SCALAR","name":"accessorAnimationInput"},{"bufferView":4,"byteOffset":384,"componentType":5126,"count":296,"type":"VEC3","name":"accessorAnimationPositions"},{"bufferView":3,"byteOffset":1312,"componentType":5126,"count":168,"max":[10.0],"min":[0.0],"type":"SCALAR","name":"accessorAnimationInput"},{"bufferView":4,"byteOffset":3936,"componentType":5126,"count":168,"type":"VEC3","name":"accessorAnimationScales"},{"bufferView":3,"byteOffset":1984,"componentType":5126,"count":282,"max":[10.0],"min":[0.0],"type":"SCALAR","name":"accessorAnimationInput"},{"bufferView":4,"byteOffset":5952,"componentType":5126,"count":282,"type":"VEC3","name":"accessorAnimationPositions"},{"bufferView":3,"byteOffset":3112,"componentType":5126,"count":148,"max":[10.0],"min":[0.0],"type":"SCALAR","name":"accessorAnimationInput"},{"bufferView":4,"byteOffset":9336,"componentType":5126,"count":148,"type":"VEC3","name":"accessorAnimationScales"},{"bufferView":3,"byteOffset":3704,"componentType":5126,"count":32,"max":[10.0],"min":[0.0],"type":"SCALAR","name":"accessorAnimationInput"},{"bufferView":4,"byteOffset":11112,"componentType":5126,"count":32,"type":"VEC3","name":"accessorAnimationPositions"},{"bufferView":3,"byteOffset":3832,"componentType":5126,"count":301,"max":[10.0],"min":[0.0],"type":"SCALAR","name":"accessorAnimationInput"},{"bufferView":4,"byteOffset":11496,"componentType":5126,"count":301,"type":"VEC3","name":"accessorAnimationPositions"},{"bufferView":3,"byteOffset":5036,"componentType":5126,"count":99,"max":[10.0],"min":[0.0],"type":"SCALAR","name":"accessorAnimationInput"},{"bufferView":4,"byteOffset":15108,"componentType":5126,"count":99,"type":"VEC3","name":"accessorAnimationScales"},{"bufferView":3,"byteOffset":5432,"componentType":5126,"count":122,"max":[10.0],"min":[0.0],"type":"SCALAR","name":"accessorAnimationInput"},{"bufferView":4,"byteOffset":16296,"componentType":5126,"count":122,"type":"VEC3","name":"accessorAnimationPositions"},{"bufferView":3,"byteOffset":5920,"componentType":5126,"count":143,"max":[10.0],"min":[0.0],"type":"SCALAR","name":"accessorAnimationInput"},{"bufferView":5,"componentType":5126,"count":143,"type":"VEC4","name":"accessorAnimationRotations"},{"bufferView":3,"byteOffset":6492,"componentType":5126,"count":152,"max":[10.0],"min":[0.0],"type":"SCALAR","name":"accessorAnimationInput"},{"bufferView":4,"byteOffset":17760,"componentType":5126,"count":152,"type":"VEC3","name":"accessorAnimationScales"},{"bufferView":3,"byteOffset":7100,"componentType":5126,"count":78,"max":[10.0],"min":[0.0],"type":"SCALAR","name":"accessorAnimationInput"},{"bufferView":4,"byteOffset":19584,"componentType":5126,"count":78,"type":"VEC3","name":"accessorAnimationPositions"},{"bufferView":3,"byteOffset":7412,"componentType":5126,"count":176,"max":[10.0],"min":[0.0],"type":"SCALAR","name":"accessorAnimationInput"},{"bufferView":5,"byteOffset":2288,"componentType":5126,"count":176,"type":"VEC4","name":"accessorAnimationRotations"},{"bufferView":3,"byteOffset":8116,"componentType":5126,"count":191,"max":[10.0],"min":[0.0],"type":"SCALAR","name":"accessorAnimationInput"},{"bufferView":4,"byteOffset":20520,"componentType":5126,"count":191,"type":"VEC3","name":"accessorAnimationScales"},{"bufferView":3,"byteOffset":8880,"componentType":5126,"count":78,"max":[10.0],"min":[0.0],"type":"SCALAR","name":"accessorAnimationInput"},{"bufferView":4,"byteOffset":22812,"componentType":5126,"count":78,"type":"VEC3","name":"accessorAnimationPositions"},{"bufferView":3,"byteOffset":9192,"componentType":5126,"count":204,"max":[10.0],"min":[0.0],"type":"SCALAR","name":"accessorAnimationInput"},{"bufferView":5,"byteOffset":5104,"componentType":5126,"count":204,"type":"VEC4","name":"accessorAnimationRotations"},{"bufferView":3,"byteOffset":10008,"componentType":5126,"count":201,"max":[10.0],"min":[0.0],"type":"SCALAR","name":"accessorAnimationInput"},{"bufferView":4,"byteOffset":23748,"componentType":5126,"count":201,"type":"VEC3","name":"accessorAnimationScales"}],"bufferViews":[{"buffer":0,"byteLength":127032,"name":"bufferViewScalar"},{"buffer":0,"byteOffset":127032,"byteLength":274824,"byteStride":12,"name":"bufferViewFloatVec3"},{"buffer":0,"byteOffset":401856,"byteLength":91608,"byteStride":8,"name":"bufferViewFloatVec2"},{"buffer":0,"byteOffset":493464,"byteLength":10812,"name":"bufferViewAnimationFloatScalar"},{"buffer":0,"byteOffset":504276,"byteLength":26160,"name":"bufferViewAnimationFloatVec3"},{"buffer":0,"byteOffset":530436,"byteLength":8368,"name":"bufferViewAnimationFloatVec4"}],"buffers":[{"uri":"spheres.bin","byteLength":538804}],"materials":[{"pbrMetallicRoughness":{"baseColorFactor":[0.588,0.588,0.588,1.0],"metallicFactor":0.0,"roughnessFactor":0.450053632},"name":"02 - Default"},{"pbrMetallicRoughness":{"baseColorFactor":[0.588,0.588,0.588,1.0],"metallicFactor":0.0,"roughnessFactor":0.450053632},"name":"01 - Default"}],"animations":[{"channels":[{"sampler":0,"target":{"node":1,"path":"translation"}},{"sampler":1,"target":{"node":2,"path":"translation"}},{"sampler":2,"target":{"node":2,"path":"scale"}},{"sampler":3,"target":{"node":3,"path":"translation"}},{"sampler":4,"target":{"node":3,"path":"scale"}},{"sampler":5,"target":{"node":4,"path":"translation"}},{"sampler":6,"target":{"node":5,"path":"translation"}},{"sampler":7,"target":{"node":5,"path":"scale"}},{"sampler":8,"target":{"node":6,"path":"translation"}},{"sampler":9,"target":{"node":6,"path":"rotation"}},{"sampler":10,"target":{"node":6,"path":"scale"}},{"sampler":11,"target":{"node":7,"path":"translation"}},{"sampler":12,"target":{"node":7,"path":"rotation"}},{"sampler":13,"target":{"node":7,"path":"scale"}},{"sampler":14,"target":{"node":8,"path":"translation"}},{"sampler":15,"target":{"node":8,"path":"rotation"}},{"sampler":16,"target":{"node":8,"path":"scale"}}],"samplers":[{"input":28,"output":29},{"input":30,"output":31},{"input":32,"output":33},{"input":34,"output":35},{"input":36,"output":37},{"input":38,"output":39},{"input":40,"output":41},{"input":42,"output":43},{"input":44,"output":45},{"input":46,"output":47},{"input":48,"output":49},{"input":50,"output":51},{"input":52,"output":53},{"input":54,"output":55},{"input":56,"output":57},{"input":58,"output":59},{"input":60,"output":61}],"name":"All Animations"}]}