{"asset":{"version":"2.0","generator":"babylon.js glTF exporter for 3dsmax 2 v20240312.5"},"scene":0,"scenes":[{"nodes":[0,1,2,3]}],"nodes":[{"mesh":0,"translation":[0.0,0.0,-0.6],"name":"sun"},{"mesh":1,"translation":[-0.220000014,0.14,-0.6],"name":"moon1"},{"mesh":2,"translation":[0.15,-0.13000001,-0.6],"name":"moon2"},{"mesh":3,"translation":[0.0,0.0,-0.6],"name":"sunGlow"}],"meshes":[{"primitives":[{"attributes":{"POSITION":1,"NORMAL":2,"TEXCOORD_0":3},"indices":0}],"name":"sun"},{"primitives":[{"attributes":{"POSITION":5,"NORMAL":6,"TEXCOORD_0":7},"indices":4}],"name":"moon1"},{"primitives":[{"attributes":{"POSITION":9,"NORMAL":10,"TEXCOORD_0":11},"indices":8}],"name":"moon2"},{"primitives":[{"attributes":{"POSITION":13,"NORMAL":14,"TEXCOORD_0":15},"indices":12}],"name":"sunGlow"}],"accessors":[{"bufferView":0,"componentType":5123,"count":11904,"type":"SCALAR","name":"accessorIndices"},{"bufferView":1,"componentType":5126,"count":2143,"max":[0.0100000007,0.0100000007,0.0100000007],"min":[-0.0100000007,-0.0100000007,-0.0100000007],"type":"VEC3","name":"accessorPositions"},{"bufferView":1,"byteOffset":25716,"componentType":5126,"count":2143,"type":"VEC3","name":"accessorNormals"},{"bufferView":2,"componentType":5126,"count":2143,"type":"VEC2","name":"accessorUVs"},{"bufferView":0,"byteOffset":23808,"componentType":5123,"count":11904,"type":"SCALAR","name":"accessorIndices"},{"bufferView":1,"byteOffset":51432,"componentType":5126,"count":2143,"max":[0.004,0.004,0.004],"min":[-0.004,-0.004,-0.004],"type":"VEC3","name":"accessorPositions"},{"bufferView":1,"byteOffset":77148,"componentType":5126,"count":2143,"type":"VEC3","name":"accessorNormals"},{"bufferView":2,"byteOffset":17144,"componentType":5126,"count":2143,"type":"VEC2","name":"accessorUVs"},{"bufferView":0,"byteOffset":47616,"componentType":5123,"count":11904,"type":"SCALAR","name":"accessorIndices"},{"bufferView":1,"byteOffset":102864,"componentType":5126,"count":2143,"max":[0.00250000018,0.00250000018,0.00250000018],"min":[-0.00250000018,-0.00250000018,-0.00250000018],"type":"VEC3","name":"accessorPositions"},{"bufferView":1,"byteOffset":128580,"componentType":5126,"count":2143,"type":"VEC3","name":"accessorNormals"},{"bufferView":2,"byteOffset":34288,"componentType":5126,"count":2143,"type":"VEC2","name":"accessorUVs"},{"bufferView":0,"byteOffset":71424,"componentType":5123,"count":11904,"type":"SCALAR","name":"accessorIndices"},{"bufferView":1,"byteOffset":154296,"componentType":5126,"count":2143,"max":[0.0100000007,0.0100000007,0.0100000007],"min":[-0.0100000007,-0.0100000007,-0.0100000007],"type":"VEC3","name":"accessorPositions"},{"bufferView":1,"byteOffset":180012,"componentType":5126,"count":2143,"type":"VEC3","name":"accessorNormals"},{"bufferView":2,"byteOffset":51432,"componentType":5126,"count":2143,"type":"VEC2","name":"accessorUVs"},{"bufferView":3,"componentType":5126,"count":32,"max":[10.0],"min":[0.0],"type":"SCALAR","name":"accessorAnimationInput"},{"bufferView":4,"componentType":5126,"count":32,"type":"VEC3","name":"accessorAnimationPositions"},{"bufferView":3,"byteOffset":128,"componentType":5126,"count":32,"max":[10.0],"min":[0.0],"type":"SCALAR","name":"accessorAnimationInput"},{"bufferView":4,"byteOffset":384,"componentType":5126,"count":32,"type":"VEC3","name":"accessorAnimationPositions"},{"bufferView":3,"byteOffset":256,"componentType":5126,"count":32,"max":[10.0],"min":[0.0],"type":"SCALAR","name":"accessorAnimationInput"},{"bufferView":4,"byteOffset":768,"componentType":5126,"count":32,"type":"VEC3","name":"accessorAnimationPositions"},{"bufferView":3,"byteOffset":384,"componentType":5126,"count":32,"max":[10.0],"min":[0.0],"type":"SCALAR","name":"accessorAnimationInput"},{"bufferView":4,"byteOffset":1152,"componentType":5126,"count":32,"type":"VEC3","name":"accessorAnimationPositions"}],"bufferViews":[{"buffer":0,"byteLength":95232,"name":"bufferViewScalar"},{"buffer":0,"byteOffset":95232,"byteLength":205728,"byteStride":12,"name":"bufferViewFloatVec3"},{"buffer":0,"byteOffset":300960,"byteLength":68576,"byteStride":8,"name":"bufferViewFloatVec2"},{"buffer":0,"byteOffset":369536,"byteLength":512,"name":"bufferViewAnimationFloatScalar"},{"buffer":0,"byteOffset":370048,"byteLength":1536,"name":"bufferViewAnimationFloatVec3"}],"buffers":[{"uri":"spheres.bin","byteLength":371584}],"animations":[{"channels":[{"sampler":0,"target":{"node":0,"path":"translation"}},{"sampler":1,"target":{"node":1,"path":"translation"}},{"sampler":2,"target":{"node":2,"path":"translation"}},{"sampler":3,"target":{"node":3,"path":"translation"}}],"samplers":[{"input":16,"output":17},{"input":18,"output":19},{"input":20,"output":21},{"input":22,"output":23}],"name":"All Animations"}]}